<svg id="Group_59" data-name="Group 59" xmlns="http://www.w3.org/2000/svg" xmlns:xlink="http://www.w3.org/1999/xlink" width="102.244" height="96.704" viewBox="0 0 102.244 96.704">
  <defs>
    <clipPath id="clip-path">
      <rect id="Rectangle_137" data-name="Rectangle 137" width="102.244" height="96.704" fill="none"/>
    </clipPath>
    <clipPath id="clip-path-2">
      <rect id="Rectangle_134" data-name="Rectangle 134" width="102.245" height="96.705" fill="none"/>
    </clipPath>
    <clipPath id="clip-path-3">
      <rect id="Rectangle_133" data-name="Rectangle 133" width="94.48" height="94.48" fill="none"/>
    </clipPath>
    <clipPath id="clip-path-4">
      <path id="Path_56" data-name="Path 56" d="M48.431,0a47.24,47.24,0,1,0,47.24,47.238A47.238,47.238,0,0,0,48.431,0Z" transform="translate(-1.193)" fill="none"/>
    </clipPath>
    <clipPath id="clip-path-5">
      <rect id="Rectangle_135" data-name="Rectangle 135" width="102.244" height="87.285" fill="none"/>
    </clipPath>
  </defs>
  <g id="Group_75" data-name="Group 75">
    <g id="Group_74" data-name="Group 74" clip-path="url(#clip-path)">
      <g id="Group_64" data-name="Group 64" transform="translate(0 -0.001)">
        <g id="Group_63" data-name="Group 63" clip-path="url(#clip-path-2)">
          <g id="Group_62" data-name="Group 62" transform="translate(2.016 0.001)" opacity="0.3">
            <g id="Group_61" data-name="Group 61">
              <g id="Group_60" data-name="Group 60" clip-path="url(#clip-path-3)">
                <path id="Path_54" data-name="Path 54" d="M95.673,47.24A47.241,47.241,0,1,1,48.432,0,47.239,47.239,0,0,1,95.673,47.24" transform="translate(-1.192)" fill="#fff"/>
              </g>
            </g>
          </g>
        </g>
      </g>
      <g id="Group_70" data-name="Group 70" transform="translate(2.017)">
        <g id="Group_69" data-name="Group 69" clip-path="url(#clip-path-4)">
          <g id="Group_67" data-name="Group 67" transform="translate(-2.017 9.419)" opacity="0.8">
            <g id="Group_66" data-name="Group 66">
              <g id="Group_65" data-name="Group 65" clip-path="url(#clip-path-5)">
                <path id="Path_55" data-name="Path 55" d="M102.07,91.447a17.608,17.608,0,0,0-9.576-9.985,11.353,11.353,0,0,0-2.354-.989c-2.626-.6-5.227-1.3-7.811-2.075a3.4,3.4,0,0,1-2.413-.84A39.318,39.318,0,0,1,74.2,75.129a2.508,2.508,0,0,1-1.655-.768c-.325-.086-.6-.3-.923-.4a4.078,4.078,0,0,1-2.3-1.459c-.357-.237-.737-.446-1.072-.715a1.444,1.444,0,0,1-.807-1.043c-.156-.68-.36-1.349-.543-2.022a14.474,14.474,0,0,1-.4-2.08c-.083-.389-.178-.727-.609-.844-.414-.206-.808-.008-1.2.074-.8.172-1.233-.078-1.36-.922-.088-.607-.255-1.219-.284-1.818-.064-1.339-.267-2.761,1.02-3.747A53.263,53.263,0,0,0,67.574,49.9c.2-.736.548-1.354,1.524-1.382a1.377,1.377,0,0,0,1.258-1.062,36.259,36.259,0,0,1,2.014-5.651,24.558,24.558,0,0,0,.982-3.915c-.014-.274.059-.548.034-.82a.714.714,0,0,0-.157-.293,1,1,0,0,1-.145-.11c.025-.585.071-1.17.051-1.754a1.679,1.679,0,0,0-1.221-1.706c-.739-.194-.874-.6-.829-1.256.167-2.575.315-5.156.468-7.736a.265.265,0,0,0-.027-.24.138.138,0,0,0,0-.154c-.074-.783-.142-1.564-.232-2.344a13.121,13.121,0,0,0-1.39-5.4,18.814,18.814,0,0,0-7.809-7.319,33.838,33.838,0,0,0-8.868-2.736,18.99,18.99,0,0,0-16.9,4.346.44.44,0,0,1,.039.132,3.706,3.706,0,0,0-1.3,1.41,11.349,11.349,0,0,1-2.339,2.829,6.315,6.315,0,0,0-2.278,5.585.968.968,0,0,0-.183.1,1.177,1.177,0,0,0-.2.286c-.4,1.841.1,3.673.1,5.509a23.507,23.507,0,0,1,.592,4.747,1.478,1.478,0,0,1-1.016,1.764,2.52,2.52,0,0,0-1.644,2.278,8,8,0,0,0,.117,3.247c.418,1.515.859,3.024,1.346,4.517a12.312,12.312,0,0,1,1.525,4.084,2.075,2.075,0,0,0,1.4,1.782,1.766,1.766,0,0,1,1.2,1.4c.24,1.1.651,2.154.988,3.226a6.657,6.657,0,0,1,1.043,2.667.925.925,0,0,0,.076.308c1.865,2.973,2.866,6.093,1.639,9.595-.636.68-1.265-.03-1.9-.042s-1.167-.069-1.321.71c-.484,1.519-.746,3.1-1.224,4.62A2.832,2.832,0,0,1,31.5,72.965a30.2,30.2,0,0,1-5.364,2.205A16.833,16.833,0,0,1,22,76.834c-2.707,1-5.546,1.568-8.332,2.317A26.6,26.6,0,0,0,4.1,83.381C2.648,85.159.741,86.609.027,88.936c0,.991.057,1.985-.019,2.971-.056.768.159.949.937.949q50.476-.036,100.951-.022c.5-.408.372-.864.174-1.387" transform="translate(0 -5.57)" fill="#fff" fill-rule="evenodd"/>
              </g>
            </g>
          </g>
        </g>
      </g>
    </g>
  </g>
</svg>
