<svg xmlns="http://www.w3.org/2000/svg" xmlns:xlink="http://www.w3.org/1999/xlink" width="77.273" height="104.602" viewBox="0 0 77.273 104.602">
  <defs>
    <clipPath id="clip-path">
      <rect id="Rectangle_141" data-name="Rectangle 141" width="77.273" height="104.602" fill="none"/>
    </clipPath>
  </defs>
  <g id="Group_81" data-name="Group 81" clip-path="url(#clip-path)">
    <path id="Path_61" data-name="Path 61" d="M68.718,39.729V25.383C68.718,11.387,57.6,0,43.927,0H33.06C19.39,0,8.269,11.387,8.269,25.383v14.4A10,10,0,0,0,0,49.511V94.7a10.044,10.044,0,0,0,10.122,9.9H67.15a10.044,10.044,0,0,0,10.122-9.9V49.511a10.009,10.009,0,0,0-8.554-9.782M43.341,73.511V84.8a3.4,3.4,0,0,1-3.422,3.347h-.855A3.4,3.4,0,0,1,35.642,84.8V73.681a9.984,9.984,0,0,1-6.558-9.316,10.2,10.2,0,0,1,20.387,0,9.97,9.97,0,0,1-6.13,9.146m17.092-33.9H16.554V25.383A16.785,16.785,0,0,1,33.06,8.368H43.927A16.785,16.785,0,0,1,60.433,25.383Z" fill="#fff"/>
  </g>
</svg>
