<svg id="Group_110" data-name="Group 110" xmlns="http://www.w3.org/2000/svg" xmlns:xlink="http://www.w3.org/1999/xlink" width="55.412" height="46.727" viewBox="0 0 55.412 46.727">
  <defs>
    <clipPath id="clip-path">
      <rect id="Rectangle_266" data-name="Rectangle 266" width="55.412" height="46.727" fill="#fff"/>
    </clipPath>
  </defs>
  <g id="Group_98" data-name="Group 98" clip-path="url(#clip-path)">
    <path id="Path_91" data-name="Path 91" d="M368.79,74.451a1.156,1.156,0,1,0,1.156-1.156,1.156,1.156,0,0,0-1.156,1.156" transform="translate(-359.327 -64.623)" fill="#fff"/>
    <path id="Path_92" data-name="Path 92" d="M373.676,73.873a.578.578,0,1,0,.578-.578.578.578,0,0,0-.578.578" transform="translate(-363.635 -64.623)" fill="#fff"/>
    <path id="Path_93" data-name="Path 93" d="M368.77,189.121l-1.314-.938a4.812,4.812,0,0,1,1.314.938" transform="translate(-356.836 -165.917)" fill="#fff"/>
    <path id="Path_94" data-name="Path 94" d="M14.266,39.743a9.768,9.768,0,0,1,4.287-1.567c4.817-.434,12.018-.143,15.942,2.685l.107-.051-.107.051a34.7,34.7,0,0,1,4.021-2.911c1.866-.857,2.027-1.092,5.978-1.411,7.514-.608,14.114.9,21.589,5.112-6.553-.684-12.542,3.531-18.993,4.87-4.144.86-8.431.516-12.648.168a25.307,25.307,0,0,0,4.906,4.487c-4.575-1.685-5.589-3.474-7.586-6.061a62.857,62.857,0,0,0,12.784.116,21.091,21.091,0,0,0,11.618-4.895,22.631,22.631,0,0,0-22.245,2.5A22.784,22.784,0,0,0,19.1,40.342c-2.435.425-5.3,1.962-5.058,4.421a7.831,7.831,0,0,0,1.939,3.79,37.43,37.43,0,0,0,5.526,4.985c-.035-.036-.069-.073-.1-.11l1.314.938c-.113-.065-.227-.129-.338-.195.506.358,1.053.733,1.652,1.133a37.974,37.974,0,0,1-5.982-3.155c-2.236-1.448-4.4-3.239-5.427-5.7s-.586-5.243,1.639-6.708m20.428,1.022-.017.008.017-.008" transform="translate(-12.102 -32.101)" fill="#fff"/>
    <path id="Path_95" data-name="Path 95" d="M75.167,1.188S59.533.161,52.635,7.961c0,0,6.4-11.043,26.259-7.117L72.887,3.981Z" transform="translate(-29.71 0)" fill="#fff"/>
    <path id="Path_96" data-name="Path 96" d="M20.25,196.079c2.717-1.479,5.033-4.112,5.314-7.193a14.22,14.22,0,0,0-.078-2.292c-.364-2.279-2.807-3.946-1.853.3a7.412,7.412,0,0,1-5.2,8.627,2.069,2.069,0,0,1-2.064-.351,2.137,2.137,0,0,1-.417-1.232c-.415-4.219,4.742-7.259-.136-12.931C12.083,176.668,3.285,178.864,0,174.172l1.973,1.157c2.573,1.094,5.434,1.217,8.2,1.614s5.658,1.176,7.568,3.218a9.085,9.085,0,0,1,2.23,6.435,16.5,16.5,0,0,1-1.921,6.829,1.084,1.084,0,0,0-.119.4c-.075,1.005,1.484.971,2.263.39a6.613,6.613,0,0,0,2.281-7.119c-.5-1.549-1.585-3.068-1.728-4.6a1.6,1.6,0,0,1,1.3-1.719,4.45,4.45,0,0,1,4.558,2,7.622,7.622,0,0,1,.8,3.539,11.515,11.515,0,0,1-1.018,6.029c-1.3,2.394-2.62,4.174-6.2,5.192a36.922,36.922,0,0,1-15.429,1.216,60.124,60.124,0,0,0,10.857-1.179,16.381,16.381,0,0,0,4.638-1.5" transform="translate(27.984 -153.564)" fill="#fff"/>
    <path id="Path_97" data-name="Path 97" d="M127.07,247.437a17.956,17.956,0,0,1,11.493,2.261c-1.537-1.128-3.96-7.182-2.235-11.3a6.753,6.753,0,0,1,2.341-3.062,8.164,8.164,0,0,1,4.956-1.019,11.7,11.7,0,0,1,4.076.807,7.809,7.809,0,0,1,1.932,13.176l.008-.013-.008.013c1.3-2.27,1.892-4.709,1.53-6.247a7.919,7.919,0,0,0-4.834-5.3s-5.952-2.261-8.629,2.5c-1.959,3.48,1.524,9.716,3.533,12.811-4.522-1.984-7.858-3.064-12.1-3.15a5.183,5.183,0,0,0-3.561,1.019,2.484,2.484,0,0,0-.442,3.376,2.639,2.639,0,0,1-1.572-4.234,6.4,6.4,0,0,1,3.511-1.634m22.787.527h0" transform="translate(-111.573 -206.578)" fill="#fff"/>
  </g>
</svg>
