<svg xmlns="http://www.w3.org/2000/svg" xmlns:xlink="http://www.w3.org/1999/xlink" width="98.772" height="112.216" viewBox="0 0 98.772 112.216">
  <defs>
    <clipPath id="clip-path">
      <rect id="Rectangle_271" data-name="Rectangle 271" width="98.772" height="112.216" fill="none"/>
    </clipPath>
  </defs>
  <g id="Group_109" data-name="Group 109" clip-path="url(#clip-path)">
    <path id="Path_126" data-name="Path 126" d="M79.684,23.8l-5.414,6.955a40.6,40.6,0,1,1-22.656-8.452L44,30.3l5.652,5.393L61.674,23.067l0,0,5.388-5.657-5.648-5.388,0,0L48.793,0,43.4,5.657l8.224,7.833a49.383,49.383,0,0,0-9.913,98.115,49.91,49.91,0,0,0,7.78.611A49.4,49.4,0,0,0,79.684,23.8" transform="translate(0)" fill="#fff"/>
    <path id="Path_127" data-name="Path 127" d="M78.209,117.435v0h0v-5.071c6.013-.671,11.863-4.47,11.863-11.681,0-9.8-9.111-10.922-15.765-11.741-4.255-.508-7.511-1.1-7.511-3.676,0-3.584,5.051-3.97,7.223-3.97,3.224,0,6.664,1.516,7.833,3.45l.339.562,6.684-3.093-.331-.674c-2.491-5.092-6.955-6.566-10.337-7.16V69.913H70.381v4.446c-7.287,1.075-11.614,5.119-11.614,10.9,0,9.434,8.566,10.391,14.815,11.092,5.569.657,8.162,2.033,8.162,4.325,0,4.38-6.066,4.722-7.925,4.722-4.139,0-8.13-2.065-9.284-4.807l-.287-.677L56.987,103l.29.677c2.15,5.033,6.79,8.187,13.106,8.933v4.828Z" transform="translate(-23.985 -29.425)" fill="#fff"/>
  </g>
</svg>
